<mxfile host="app.diagrams.net" modified="2020-09-12T00:29:12.095Z" agent="5.0 (Macintosh; Intel Mac OS X 10_15_5) AppleWebKit/537.36 (KHTML, like Gecko) Chrome/84.0.4147.135 Safari/537.36" etag="SbOMqdrMueZx1EyRsZCk" version="13.6.10" type="github">
  <diagram id="R2lEEEUBdFMjLlhIrx00" name="Page-1">
    <mxGraphModel dx="4677" dy="3145" grid="1" gridSize="10" guides="1" tooltips="1" connect="1" arrows="1" fold="1" page="1" pageScale="1" pageWidth="850" pageHeight="1100" math="0" shadow="0" extFonts="Permanent Marker^https://fonts.googleapis.com/css?family=Permanent+Marker">
      <root>
        <mxCell id="0" />
        <mxCell id="1" parent="0" />
        <mxCell id="i5uj6cN08diidUBK15VX-18" value="&lt;b&gt;FK&lt;/b&gt;" style="text;html=1;align=center;verticalAlign=middle;resizable=0;points=[];autosize=1;" parent="1" vertex="1">
          <mxGeometry x="358" y="970" width="30" height="20" as="geometry" />
        </mxCell>
        <mxCell id="i5uj6cN08diidUBK15VX-21" value="first_name" style="text;html=1;align=center;verticalAlign=middle;resizable=0;points=[];autosize=1;" parent="1" vertex="1">
          <mxGeometry x="398" y="820" width="70" height="20" as="geometry" />
        </mxCell>
        <mxCell id="i5uj6cN08diidUBK15VX-23" value="birth_date" style="text;html=1;align=center;verticalAlign=middle;resizable=0;points=[];autosize=1;" parent="1" vertex="1">
          <mxGeometry x="398" y="840" width="70" height="20" as="geometry" />
        </mxCell>
        <mxCell id="i5uj6cN08diidUBK15VX-24" value="speciality" style="text;html=1;align=center;verticalAlign=middle;resizable=0;points=[];autosize=1;" parent="1" vertex="1">
          <mxGeometry x="399" y="860" width="60" height="20" as="geometry" />
        </mxCell>
        <mxCell id="i5uj6cN08diidUBK15VX-26" value="GPA" style="text;html=1;align=center;verticalAlign=middle;resizable=0;points=[];autosize=1;" parent="1" vertex="1">
          <mxGeometry x="398" y="880" width="40" height="20" as="geometry" />
        </mxCell>
        <mxCell id="i5uj6cN08diidUBK15VX-27" value="Rating" style="text;html=1;align=center;verticalAlign=middle;resizable=0;points=[];autosize=1;" parent="1" vertex="1">
          <mxGeometry x="398" y="900" width="50" height="20" as="geometry" />
        </mxCell>
        <mxCell id="i5uj6cN08diidUBK15VX-62" value="speciality" style="text;html=1;align=center;verticalAlign=middle;resizable=0;points=[];autosize=1;" parent="1" vertex="1">
          <mxGeometry x="120.5" y="640" width="60" height="20" as="geometry" />
        </mxCell>
        <mxCell id="i5uj6cN08diidUBK15VX-64" value="course" style="text;html=1;align=center;verticalAlign=middle;resizable=0;points=[];autosize=1;" parent="1" vertex="1">
          <mxGeometry x="120.5" y="660" width="50" height="20" as="geometry" />
        </mxCell>
        <mxCell id="i5uj6cN08diidUBK15VX-66" value="group_leader" style="text;html=1;align=center;verticalAlign=middle;resizable=0;points=[];autosize=1;" parent="1" vertex="1">
          <mxGeometry x="115.5" y="680" width="90" height="20" as="geometry" />
        </mxCell>
        <mxCell id="i5uj6cN08diidUBK15VX-68" value="schedule" style="text;html=1;align=center;verticalAlign=middle;resizable=0;points=[];autosize=1;" parent="1" vertex="1">
          <mxGeometry x="120.5" y="700" width="60" height="20" as="geometry" />
        </mxCell>
        <mxCell id="i5uj6cN08diidUBK15VX-71" value="&lt;b&gt;FK&lt;/b&gt;" style="text;html=1;align=center;verticalAlign=middle;resizable=0;points=[];autosize=1;" parent="1" vertex="1">
          <mxGeometry x="80.5" y="770" width="30" height="20" as="geometry" />
        </mxCell>
        <mxCell id="i5uj6cN08diidUBK15VX-191" value="Teacher" style="shape=table;startSize=40;container=1;collapsible=1;childLayout=tableLayout;fixedRows=1;rowLines=0;fontStyle=1;align=center;resizeLast=1;" parent="1" vertex="1">
          <mxGeometry x="80" y="160" width="161" height="320" as="geometry" />
        </mxCell>
        <mxCell id="i5uj6cN08diidUBK15VX-192" value="" style="shape=partialRectangle;collapsible=0;dropTarget=0;pointerEvents=0;fillColor=none;points=[[0,0.5],[1,0.5]];portConstraint=eastwest;top=0;left=0;right=0;bottom=1;" parent="i5uj6cN08diidUBK15VX-191" vertex="1">
          <mxGeometry y="40" width="161" height="40" as="geometry" />
        </mxCell>
        <mxCell id="i5uj6cN08diidUBK15VX-193" value="PK" style="shape=partialRectangle;overflow=hidden;connectable=0;fillColor=none;top=0;left=0;bottom=0;right=0;fontStyle=1;" parent="i5uj6cN08diidUBK15VX-192" vertex="1">
          <mxGeometry width="40" height="40" as="geometry" />
        </mxCell>
        <mxCell id="i5uj6cN08diidUBK15VX-194" value="teach_id" style="shape=partialRectangle;overflow=hidden;connectable=0;fillColor=none;top=0;left=0;bottom=0;right=0;align=left;spacingLeft=6;fontStyle=5;" parent="i5uj6cN08diidUBK15VX-192" vertex="1">
          <mxGeometry x="40" width="121" height="40" as="geometry" />
        </mxCell>
        <mxCell id="i5uj6cN08diidUBK15VX-198" style="edgeStyle=orthogonalEdgeStyle;rounded=0;orthogonalLoop=1;jettySize=auto;html=1;exitX=1;exitY=0.5;exitDx=0;exitDy=0;" parent="i5uj6cN08diidUBK15VX-191" source="i5uj6cN08diidUBK15VX-192" target="i5uj6cN08diidUBK15VX-192" edge="1">
          <mxGeometry relative="1" as="geometry" />
        </mxCell>
        <mxCell id="i5uj6cN08diidUBK15VX-229" value="" style="shape=partialRectangle;collapsible=0;dropTarget=0;pointerEvents=0;fillColor=none;points=[[0,0.5],[1,0.5]];portConstraint=eastwest;top=0;left=0;right=0;bottom=0;" parent="i5uj6cN08diidUBK15VX-191" vertex="1">
          <mxGeometry y="80" width="161" height="40" as="geometry" />
        </mxCell>
        <mxCell id="i5uj6cN08diidUBK15VX-230" value="" style="shape=partialRectangle;overflow=hidden;connectable=0;fillColor=none;top=0;left=0;bottom=0;right=0;" parent="i5uj6cN08diidUBK15VX-229" vertex="1">
          <mxGeometry width="40" height="40" as="geometry" />
        </mxCell>
        <mxCell id="i5uj6cN08diidUBK15VX-231" value="last_name&#xa;first_name" style="shape=partialRectangle;overflow=hidden;connectable=0;fillColor=none;top=0;left=0;bottom=0;right=0;align=left;spacingLeft=6;" parent="i5uj6cN08diidUBK15VX-229" vertex="1">
          <mxGeometry x="40" width="121" height="40" as="geometry" />
        </mxCell>
        <mxCell id="i5uj6cN08diidUBK15VX-195" value="" style="shape=partialRectangle;collapsible=0;dropTarget=0;pointerEvents=0;fillColor=none;points=[[0,0.5],[1,0.5]];portConstraint=eastwest;top=0;left=0;right=0;bottom=0;" parent="i5uj6cN08diidUBK15VX-191" vertex="1">
          <mxGeometry y="120" width="161" height="40" as="geometry" />
        </mxCell>
        <mxCell id="i5uj6cN08diidUBK15VX-196" value="" style="shape=partialRectangle;overflow=hidden;connectable=0;fillColor=none;top=0;left=0;bottom=0;right=0;" parent="i5uj6cN08diidUBK15VX-195" vertex="1">
          <mxGeometry width="40" height="40" as="geometry" />
        </mxCell>
        <mxCell id="i5uj6cN08diidUBK15VX-197" value="" style="shape=partialRectangle;overflow=hidden;connectable=0;fillColor=none;top=0;left=0;bottom=0;right=0;align=left;spacingLeft=6;" parent="i5uj6cN08diidUBK15VX-195" vertex="1">
          <mxGeometry x="40" width="121" height="40" as="geometry" />
        </mxCell>
        <mxCell id="i5uj6cN08diidUBK15VX-94" value="dep_type" style="text;html=1;align=center;verticalAlign=middle;resizable=0;points=[];autosize=1;" parent="1" vertex="1">
          <mxGeometry x="262" y="-40" width="60" height="20" as="geometry" />
        </mxCell>
        <mxCell id="i5uj6cN08diidUBK15VX-95" value="dep_name" style="text;html=1;align=center;verticalAlign=middle;resizable=0;points=[];autosize=1;" parent="1" vertex="1">
          <mxGeometry x="262" y="-20" width="70" height="20" as="geometry" />
        </mxCell>
        <mxCell id="i5uj6cN08diidUBK15VX-99" value="&lt;b&gt;FK&lt;/b&gt;" style="text;html=1;align=center;verticalAlign=middle;resizable=0;points=[];autosize=1;" parent="1" vertex="1">
          <mxGeometry x="222" y="10" width="30" height="20" as="geometry" />
        </mxCell>
        <mxCell id="i5uj6cN08diidUBK15VX-100" value="sp_code" style="text;html=1;align=center;verticalAlign=middle;resizable=0;points=[];autosize=1;" parent="1" vertex="1">
          <mxGeometry x="-161.75" y="360" width="60" height="20" as="geometry" />
        </mxCell>
        <mxCell id="i5uj6cN08diidUBK15VX-102" value="&lt;b&gt;FK&lt;/b&gt;" style="text;html=1;align=center;verticalAlign=middle;resizable=0;points=[];autosize=1;" parent="1" vertex="1">
          <mxGeometry x="-200.75" y="410" width="30" height="20" as="geometry" />
        </mxCell>
        <mxCell id="i5uj6cN08diidUBK15VX-108" value="mod_week" style="text;html=1;align=center;verticalAlign=middle;resizable=0;points=[];autosize=1;" parent="1" vertex="1">
          <mxGeometry x="-163.75" y="640" width="70" height="20" as="geometry" />
        </mxCell>
        <mxCell id="i5uj6cN08diidUBK15VX-109" value="attendance" style="text;html=1;align=center;verticalAlign=middle;resizable=0;points=[];autosize=1;" parent="1" vertex="1">
          <mxGeometry x="-163.75" y="660" width="70" height="20" as="geometry" />
        </mxCell>
        <mxCell id="i5uj6cN08diidUBK15VX-110" value="&lt;b&gt;FK&lt;/b&gt;" style="text;html=1;align=center;verticalAlign=middle;resizable=0;points=[];autosize=1;" parent="1" vertex="1">
          <mxGeometry x="-202.75" y="730" width="30" height="20" as="geometry" />
        </mxCell>
        <mxCell id="i5uj6cN08diidUBK15VX-185" value="degree" style="text;html=1;align=center;verticalAlign=middle;resizable=0;points=[];autosize=1;" parent="1" vertex="1">
          <mxGeometry x="120" y="340" width="50" height="20" as="geometry" />
        </mxCell>
        <mxCell id="i5uj6cN08diidUBK15VX-187" value="phone" style="text;html=1;align=center;verticalAlign=middle;resizable=0;points=[];autosize=1;" parent="1" vertex="1">
          <mxGeometry x="120" y="320" width="50" height="20" as="geometry" />
        </mxCell>
        <mxCell id="i5uj6cN08diidUBK15VX-188" value="course" style="text;html=1;align=center;verticalAlign=middle;resizable=0;points=[];autosize=1;" parent="1" vertex="1">
          <mxGeometry x="120" y="360" width="50" height="20" as="geometry" />
        </mxCell>
        <mxCell id="i5uj6cN08diidUBK15VX-189" value="groups&lt;br&gt;e-mail" style="text;html=1;align=center;verticalAlign=middle;resizable=0;points=[];autosize=1;" parent="1" vertex="1">
          <mxGeometry x="120" y="280" width="50" height="30" as="geometry" />
        </mxCell>
        <mxCell id="i5uj6cN08diidUBK15VX-190" value="&lt;b&gt;FK&lt;/b&gt;" style="text;html=1;align=center;verticalAlign=middle;resizable=0;points=[];autosize=1;" parent="1" vertex="1">
          <mxGeometry x="80.5" y="410" width="30" height="20" as="geometry" />
        </mxCell>
        <mxCell id="i5uj6cN08diidUBK15VX-220" value="&lt;b&gt;group_id&lt;/b&gt;" style="text;html=1;align=center;verticalAlign=middle;resizable=0;points=[];autosize=1;" parent="1" vertex="1">
          <mxGeometry x="399" y="970" width="70" height="20" as="geometry" />
        </mxCell>
        <mxCell id="t2gqi0FVWNy471JVDvcs-2" value="" style="edgeStyle=elbowEdgeStyle;fontSize=12;html=1;endArrow=ERoneToMany;strokeWidth=2;strokeColor=#3333FF;endFill=0;exitX=1.006;exitY=0.725;exitDx=0;exitDy=0;exitPerimeter=0;" parent="1" source="i5uj6cN08diidUBK15VX-53" edge="1">
          <mxGeometry width="100" height="100" relative="1" as="geometry">
            <mxPoint x="249" y="630" as="sourcePoint" />
            <mxPoint x="358" y="980" as="targetPoint" />
            <Array as="points">
              <mxPoint x="320" y="760" />
            </Array>
          </mxGeometry>
        </mxCell>
        <mxCell id="t2gqi0FVWNy471JVDvcs-3" value="" style="edgeStyle=entityRelationEdgeStyle;fontSize=12;html=1;endArrow=none;strokeColor=#3333FF;strokeWidth=2;endFill=0;" parent="1" edge="1">
          <mxGeometry width="100" height="100" relative="1" as="geometry">
            <mxPoint x="240" y="220" as="sourcePoint" />
            <mxPoint x="70" y="780" as="targetPoint" />
          </mxGeometry>
        </mxCell>
        <mxCell id="t2gqi0FVWNy471JVDvcs-4" value="&lt;b&gt;teach_id&lt;/b&gt;" style="text;html=1;align=center;verticalAlign=middle;resizable=0;points=[];autosize=1;" parent="1" vertex="1">
          <mxGeometry x="131" y="770" width="60" height="20" as="geometry" />
        </mxCell>
        <mxCell id="t2gqi0FVWNy471JVDvcs-5" value="&lt;meta charset=&quot;utf-8&quot;&gt;&lt;b style=&quot;color: rgb(0, 0, 0); font-family: helvetica; font-size: 12px; font-style: normal; letter-spacing: normal; text-align: center; text-indent: 0px; text-transform: none; word-spacing: 0px; background-color: rgb(248, 249, 250);&quot;&gt;FK&lt;/b&gt;" style="text;whiteSpace=wrap;html=1;" parent="1" vertex="1">
          <mxGeometry x="370" y="250" width="40" height="30" as="geometry" />
        </mxCell>
        <mxCell id="i5uj6cN08diidUBK15VX-28" value="Adviser" style="shape=table;startSize=40;container=1;collapsible=1;childLayout=tableLayout;fixedRows=1;rowLines=0;fontStyle=1;align=center;resizeLast=1;" parent="1" vertex="1">
          <mxGeometry x="359" y="160" width="161" height="170" as="geometry" />
        </mxCell>
        <mxCell id="i5uj6cN08diidUBK15VX-29" value="" style="shape=partialRectangle;collapsible=0;dropTarget=0;pointerEvents=0;fillColor=none;points=[[0,0.5],[1,0.5]];portConstraint=eastwest;top=0;left=0;right=0;bottom=1;" parent="i5uj6cN08diidUBK15VX-28" vertex="1">
          <mxGeometry y="40" width="161" height="40" as="geometry" />
        </mxCell>
        <mxCell id="i5uj6cN08diidUBK15VX-30" value="PK" style="shape=partialRectangle;overflow=hidden;connectable=0;fillColor=none;top=0;left=0;bottom=0;right=0;fontStyle=1;" parent="i5uj6cN08diidUBK15VX-29" vertex="1">
          <mxGeometry width="40" height="40" as="geometry" />
        </mxCell>
        <mxCell id="i5uj6cN08diidUBK15VX-31" value="adv_id" style="shape=partialRectangle;overflow=hidden;connectable=0;fillColor=none;top=0;left=0;bottom=0;right=0;align=left;spacingLeft=6;fontStyle=5;" parent="i5uj6cN08diidUBK15VX-29" vertex="1">
          <mxGeometry x="40" width="121" height="40" as="geometry" />
        </mxCell>
        <mxCell id="i5uj6cN08diidUBK15VX-35" style="edgeStyle=orthogonalEdgeStyle;rounded=0;orthogonalLoop=1;jettySize=auto;html=1;exitX=1;exitY=0.5;exitDx=0;exitDy=0;" parent="i5uj6cN08diidUBK15VX-28" source="i5uj6cN08diidUBK15VX-29" target="i5uj6cN08diidUBK15VX-29" edge="1">
          <mxGeometry relative="1" as="geometry" />
        </mxCell>
        <mxCell id="i5uj6cN08diidUBK15VX-32" value="" style="shape=partialRectangle;collapsible=0;dropTarget=0;pointerEvents=0;fillColor=none;points=[[0,0.5],[1,0.5]];portConstraint=eastwest;top=0;left=0;right=0;bottom=0;" parent="i5uj6cN08diidUBK15VX-28" vertex="1">
          <mxGeometry y="80" width="161" height="40" as="geometry" />
        </mxCell>
        <mxCell id="i5uj6cN08diidUBK15VX-33" value="" style="shape=partialRectangle;overflow=hidden;connectable=0;fillColor=none;top=0;left=0;bottom=0;right=0;" parent="i5uj6cN08diidUBK15VX-32" vertex="1">
          <mxGeometry width="40" height="40" as="geometry" />
        </mxCell>
        <mxCell id="i5uj6cN08diidUBK15VX-34" value="" style="shape=partialRectangle;overflow=hidden;connectable=0;fillColor=none;top=0;left=0;bottom=0;right=0;align=left;spacingLeft=6;fontStyle=1" parent="i5uj6cN08diidUBK15VX-32" vertex="1">
          <mxGeometry x="40" width="121" height="40" as="geometry" />
        </mxCell>
        <mxCell id="t2gqi0FVWNy471JVDvcs-7" value="&amp;nbsp; &amp;nbsp; &amp;nbsp; &amp;nbsp;lector_name" style="text;html=1;align=center;verticalAlign=middle;resizable=0;points=[];autosize=1;" parent="1" vertex="1">
          <mxGeometry x="379" y="480" width="100" height="20" as="geometry" />
        </mxCell>
        <mxCell id="t2gqi0FVWNy471JVDvcs-8" value="attendance" style="text;html=1;align=center;verticalAlign=middle;resizable=0;points=[];autosize=1;" parent="1" vertex="1">
          <mxGeometry x="404" y="500" width="70" height="20" as="geometry" />
        </mxCell>
        <mxCell id="t2gqi0FVWNy471JVDvcs-9" value="&lt;b&gt;FK&lt;/b&gt;" style="text;html=1;align=center;verticalAlign=middle;resizable=0;points=[];autosize=1;" parent="1" vertex="1">
          <mxGeometry x="354" y="560" width="30" height="20" as="geometry" />
        </mxCell>
        <mxCell id="t2gqi0FVWNy471JVDvcs-16" value="sp_title" style="text;html=1;align=center;verticalAlign=middle;resizable=0;points=[];autosize=1;" parent="1" vertex="1">
          <mxGeometry x="-161.75" y="380" width="50" height="20" as="geometry" />
        </mxCell>
        <mxCell id="t2gqi0FVWNy471JVDvcs-17" value="" style="edgeStyle=entityRelationEdgeStyle;fontSize=12;html=1;endArrow=ERoneToMany;strokeWidth=2;exitX=1.016;exitY=0.109;exitDx=0;exitDy=0;exitPerimeter=0;strokeColor=none;rounded=0;" parent="1" source="i5uj6cN08diidUBK15VX-103" edge="1">
          <mxGeometry width="100" height="100" relative="1" as="geometry">
            <mxPoint x="10" y="300" as="sourcePoint" />
            <mxPoint x="70" y="790" as="targetPoint" />
          </mxGeometry>
        </mxCell>
        <mxCell id="t2gqi0FVWNy471JVDvcs-18" value="" style="edgeStyle=entityRelationEdgeStyle;fontSize=12;html=1;endArrow=none;strokeColor=#3333FF;strokeWidth=2;rounded=1;endFill=0;" parent="1" edge="1">
          <mxGeometry width="100" height="100" relative="1" as="geometry">
            <mxPoint x="-30" y="340" as="sourcePoint" />
            <mxPoint x="30" y="840" as="targetPoint" />
          </mxGeometry>
        </mxCell>
        <mxCell id="t2gqi0FVWNy471JVDvcs-19" value="&lt;b&gt;FK&lt;/b&gt;" style="text;html=1;align=center;verticalAlign=middle;resizable=0;points=[];autosize=1;" parent="1" vertex="1">
          <mxGeometry x="80.5" y="830" width="30" height="20" as="geometry" />
        </mxCell>
        <mxCell id="t2gqi0FVWNy471JVDvcs-20" value="&lt;b&gt;sp_id&lt;/b&gt;" style="text;html=1;align=center;verticalAlign=middle;resizable=0;points=[];autosize=1;" parent="1" vertex="1">
          <mxGeometry x="136" y="830" width="50" height="20" as="geometry" />
        </mxCell>
        <mxCell id="t2gqi0FVWNy471JVDvcs-11" value="lecture" style="shape=table;startSize=40;container=1;collapsible=1;childLayout=tableLayout;fixedRows=1;rowLines=0;fontStyle=1;align=center;resizeLast=1;" parent="1" vertex="1">
          <mxGeometry x="359" y="400" width="160" height="200" as="geometry" />
        </mxCell>
        <mxCell id="t2gqi0FVWNy471JVDvcs-12" value="" style="shape=partialRectangle;collapsible=0;dropTarget=0;pointerEvents=0;fillColor=none;points=[[0,0.5],[1,0.5]];portConstraint=eastwest;top=0;left=0;right=0;bottom=1;" parent="t2gqi0FVWNy471JVDvcs-11" vertex="1">
          <mxGeometry y="40" width="160" height="40" as="geometry" />
        </mxCell>
        <mxCell id="t2gqi0FVWNy471JVDvcs-13" value="PK" style="shape=partialRectangle;overflow=hidden;connectable=0;fillColor=none;top=0;left=0;bottom=0;right=0;fontStyle=1;" parent="t2gqi0FVWNy471JVDvcs-12" vertex="1">
          <mxGeometry width="40" height="40" as="geometry" />
        </mxCell>
        <mxCell id="t2gqi0FVWNy471JVDvcs-14" value="lec_id" style="shape=partialRectangle;overflow=hidden;connectable=0;fillColor=none;top=0;left=0;bottom=0;right=0;align=left;spacingLeft=6;fontStyle=5;" parent="t2gqi0FVWNy471JVDvcs-12" vertex="1">
          <mxGeometry x="40" width="120" height="40" as="geometry" />
        </mxCell>
        <mxCell id="C-vyLk0tnHw3VtMMgP7b-23" value="Student" style="shape=table;startSize=40;container=1;collapsible=1;childLayout=tableLayout;fixedRows=1;rowLines=0;fontStyle=1;align=center;resizeLast=1;" parent="1" vertex="1">
          <mxGeometry x="358" y="720" width="160" height="280" as="geometry" />
        </mxCell>
        <mxCell id="C-vyLk0tnHw3VtMMgP7b-24" value="" style="shape=partialRectangle;collapsible=0;dropTarget=0;pointerEvents=0;fillColor=none;points=[[0,0.5],[1,0.5]];portConstraint=eastwest;top=0;left=0;right=0;bottom=1;" parent="C-vyLk0tnHw3VtMMgP7b-23" vertex="1">
          <mxGeometry y="40" width="160" height="40" as="geometry" />
        </mxCell>
        <mxCell id="C-vyLk0tnHw3VtMMgP7b-25" value="PK" style="shape=partialRectangle;overflow=hidden;connectable=0;fillColor=none;top=0;left=0;bottom=0;right=0;fontStyle=1;" parent="C-vyLk0tnHw3VtMMgP7b-24" vertex="1">
          <mxGeometry width="40" height="40" as="geometry" />
        </mxCell>
        <mxCell id="C-vyLk0tnHw3VtMMgP7b-26" value="stud_id" style="shape=partialRectangle;overflow=hidden;connectable=0;fillColor=none;top=0;left=0;bottom=0;right=0;align=left;spacingLeft=6;fontStyle=5;" parent="C-vyLk0tnHw3VtMMgP7b-24" vertex="1">
          <mxGeometry x="40" width="120" height="40" as="geometry" />
        </mxCell>
        <mxCell id="C-vyLk0tnHw3VtMMgP7b-27" value="" style="shape=partialRectangle;collapsible=0;dropTarget=0;pointerEvents=0;fillColor=none;points=[[0,0.5],[1,0.5]];portConstraint=eastwest;top=0;left=0;right=0;bottom=0;" parent="C-vyLk0tnHw3VtMMgP7b-23" vertex="1">
          <mxGeometry y="80" width="160" height="30" as="geometry" />
        </mxCell>
        <mxCell id="C-vyLk0tnHw3VtMMgP7b-28" value="" style="shape=partialRectangle;overflow=hidden;connectable=0;fillColor=none;top=0;left=0;bottom=0;right=0;" parent="C-vyLk0tnHw3VtMMgP7b-27" vertex="1">
          <mxGeometry width="40" height="30" as="geometry" />
        </mxCell>
        <mxCell id="C-vyLk0tnHw3VtMMgP7b-29" value="last_name" style="shape=partialRectangle;overflow=hidden;connectable=0;fillColor=none;top=0;left=0;bottom=0;right=0;align=left;spacingLeft=6;" parent="C-vyLk0tnHw3VtMMgP7b-27" vertex="1">
          <mxGeometry x="40" width="120" height="30" as="geometry" />
        </mxCell>
        <mxCell id="i5uj6cN08diidUBK15VX-25" style="edgeStyle=orthogonalEdgeStyle;rounded=0;orthogonalLoop=1;jettySize=auto;html=1;exitX=1;exitY=0.5;exitDx=0;exitDy=0;" parent="C-vyLk0tnHw3VtMMgP7b-23" source="C-vyLk0tnHw3VtMMgP7b-24" target="C-vyLk0tnHw3VtMMgP7b-24" edge="1">
          <mxGeometry relative="1" as="geometry" />
        </mxCell>
        <mxCell id="t2gqi0FVWNy471JVDvcs-21" value="" style="endArrow=none;html=1;strokeColor=#3333FF;strokeWidth=2;" parent="1" edge="1">
          <mxGeometry width="50" height="50" relative="1" as="geometry">
            <mxPoint x="-43.25" y="340" as="sourcePoint" />
            <mxPoint x="-30" y="340" as="targetPoint" />
          </mxGeometry>
        </mxCell>
        <mxCell id="t2gqi0FVWNy471JVDvcs-22" value="" style="endArrow=ERoneToMany;html=1;strokeColor=#3333FF;strokeWidth=2;endFill=0;" parent="1" edge="1">
          <mxGeometry width="50" height="50" relative="1" as="geometry">
            <mxPoint x="30" y="840" as="sourcePoint" />
            <mxPoint x="80" y="840" as="targetPoint" />
            <Array as="points" />
          </mxGeometry>
        </mxCell>
        <mxCell id="t2gqi0FVWNy471JVDvcs-23" value="" style="endArrow=ERoneToMany;html=1;strokeColor=#3333FF;strokeWidth=2;endFill=0;" parent="1" edge="1">
          <mxGeometry width="50" height="50" relative="1" as="geometry">
            <mxPoint x="70" y="779.5" as="sourcePoint" />
            <mxPoint x="80" y="779.5" as="targetPoint" />
            <Array as="points" />
          </mxGeometry>
        </mxCell>
        <mxCell id="i5uj6cN08diidUBK15VX-89" value="Department" style="shape=table;startSize=40;container=1;collapsible=1;childLayout=tableLayout;fixedRows=1;rowLines=0;fontStyle=1;align=center;resizeLast=1;" parent="1" vertex="1">
          <mxGeometry x="222" y="-120" width="161" height="160" as="geometry" />
        </mxCell>
        <mxCell id="i5uj6cN08diidUBK15VX-90" value="" style="shape=partialRectangle;collapsible=0;dropTarget=0;pointerEvents=0;fillColor=none;points=[[0,0.5],[1,0.5]];portConstraint=eastwest;top=0;left=0;right=0;bottom=1;" parent="i5uj6cN08diidUBK15VX-89" vertex="1">
          <mxGeometry y="40" width="161" height="40" as="geometry" />
        </mxCell>
        <mxCell id="i5uj6cN08diidUBK15VX-91" value="PK" style="shape=partialRectangle;overflow=hidden;connectable=0;fillColor=none;top=0;left=0;bottom=0;right=0;fontStyle=1;" parent="i5uj6cN08diidUBK15VX-90" vertex="1">
          <mxGeometry width="40" height="40" as="geometry" />
        </mxCell>
        <mxCell id="i5uj6cN08diidUBK15VX-92" value="dep_id" style="shape=partialRectangle;overflow=hidden;connectable=0;fillColor=none;top=0;left=0;bottom=0;right=0;align=left;spacingLeft=6;fontStyle=5;" parent="i5uj6cN08diidUBK15VX-90" vertex="1">
          <mxGeometry x="40" width="121" height="40" as="geometry" />
        </mxCell>
        <mxCell id="i5uj6cN08diidUBK15VX-93" style="edgeStyle=orthogonalEdgeStyle;rounded=0;orthogonalLoop=1;jettySize=auto;html=1;exitX=1;exitY=0.5;exitDx=0;exitDy=0;" parent="i5uj6cN08diidUBK15VX-89" source="i5uj6cN08diidUBK15VX-90" target="i5uj6cN08diidUBK15VX-90" edge="1">
          <mxGeometry relative="1" as="geometry" />
        </mxCell>
        <mxCell id="t2gqi0FVWNy471JVDvcs-25" value="" style="fontSize=12;html=1;endArrow=ERmany;strokeColor=#3333FF;strokeWidth=2;edgeStyle=elbowEdgeStyle;elbow=vertical;exitX=0;exitY=0.5;exitDx=0;exitDy=0;endFill=0;" parent="1" source="i5uj6cN08diidUBK15VX-90" target="i5uj6cN08diidUBK15VX-190" edge="1">
          <mxGeometry width="100" height="100" relative="1" as="geometry">
            <mxPoint x="170" y="170" as="sourcePoint" />
            <mxPoint x="270" y="70" as="targetPoint" />
            <Array as="points">
              <mxPoint x="40" y="120" />
            </Array>
          </mxGeometry>
        </mxCell>
        <mxCell id="t2gqi0FVWNy471JVDvcs-28" value="" style="edgeStyle=elbowEdgeStyle;fontSize=12;html=1;endArrow=ERmany;startArrow=none;strokeColor=#3333FF;strokeWidth=2;endFill=0;startFill=0;" parent="1" edge="1">
          <mxGeometry width="100" height="100" relative="1" as="geometry">
            <mxPoint x="280" y="120" as="sourcePoint" />
            <mxPoint x="519" y="570" as="targetPoint" />
            <Array as="points">
              <mxPoint x="560" y="330" />
            </Array>
          </mxGeometry>
        </mxCell>
        <mxCell id="t2gqi0FVWNy471JVDvcs-30" value="&lt;b style=&quot;color: rgb(0 , 0 , 0) ; font-family: &amp;#34;helvetica&amp;#34; ; font-size: 12px ; font-style: normal ; letter-spacing: normal ; text-align: center ; text-indent: 0px ; text-transform: none ; word-spacing: 0px ; background-color: rgb(248 , 249 , 250)&quot;&gt;teach_id&lt;/b&gt;" style="text;whiteSpace=wrap;html=1;" parent="1" vertex="1">
          <mxGeometry x="409" y="560" width="60" height="30" as="geometry" />
        </mxCell>
        <mxCell id="t2gqi0FVWNy471JVDvcs-31" value="" style="edgeStyle=entityRelationEdgeStyle;fontSize=12;html=1;endArrow=none;startArrow=none;strokeColor=#3333FF;strokeWidth=2;endFill=0;startFill=0;" parent="1" edge="1">
          <mxGeometry width="100" height="100" relative="1" as="geometry">
            <mxPoint x="290" y="610" as="sourcePoint" />
            <mxPoint x="350" y="300" as="targetPoint" />
          </mxGeometry>
        </mxCell>
        <mxCell id="t2gqi0FVWNy471JVDvcs-32" value="&lt;b&gt;FK&lt;/b&gt;" style="text;html=1;align=center;verticalAlign=middle;resizable=0;points=[];autosize=1;" parent="1" vertex="1">
          <mxGeometry x="363" y="290" width="30" height="20" as="geometry" />
        </mxCell>
        <mxCell id="t2gqi0FVWNy471JVDvcs-33" value="&lt;b style=&quot;color: rgb(0 , 0 , 0) ; font-family: &amp;#34;helvetica&amp;#34; ; font-size: 12px ; font-style: normal ; letter-spacing: normal ; text-align: center ; text-indent: 0px ; text-transform: none ; word-spacing: 0px ; background-color: rgb(248 , 249 , 250)&quot;&gt;group_id&lt;/b&gt;" style="text;whiteSpace=wrap;html=1;" parent="1" vertex="1">
          <mxGeometry x="404" y="290" width="60" height="30" as="geometry" />
        </mxCell>
        <mxCell id="t2gqi0FVWNy471JVDvcs-35" value="" style="endArrow=none;html=1;rounded=0;strokeColor=#3333FF;strokeWidth=2;endFill=0;startArrow=ERmany;startFill=0;exitX=1.009;exitY=0.25;exitDx=0;exitDy=0;exitPerimeter=0;" parent="1" source="i5uj6cN08diidUBK15VX-53" edge="1">
          <mxGeometry relative="1" as="geometry">
            <mxPoint x="270" y="540" as="sourcePoint" />
            <mxPoint x="290" y="610" as="targetPoint" />
          </mxGeometry>
        </mxCell>
        <mxCell id="t2gqi0FVWNy471JVDvcs-36" value="" style="endArrow=none;html=1;rounded=0;strokeColor=#3333FF;strokeWidth=2;endFill=0;startArrow=none;startFill=0;" parent="1" edge="1">
          <mxGeometry relative="1" as="geometry">
            <mxPoint x="350" y="300" as="sourcePoint" />
            <mxPoint x="360" y="300" as="targetPoint" />
          </mxGeometry>
        </mxCell>
        <mxCell id="i5uj6cN08diidUBK15VX-52" value="Group" style="shape=table;startSize=40;container=1;collapsible=1;childLayout=tableLayout;fixedRows=1;rowLines=0;fontStyle=1;align=center;resizeLast=1;" parent="1" vertex="1">
          <mxGeometry x="80.5" y="560" width="161" height="360" as="geometry" />
        </mxCell>
        <mxCell id="i5uj6cN08diidUBK15VX-53" value="" style="shape=partialRectangle;collapsible=0;dropTarget=0;pointerEvents=0;fillColor=none;points=[[0,0.5],[1,0.5]];portConstraint=eastwest;top=0;left=0;right=0;bottom=1;" parent="i5uj6cN08diidUBK15VX-52" vertex="1">
          <mxGeometry y="40" width="161" height="40" as="geometry" />
        </mxCell>
        <mxCell id="i5uj6cN08diidUBK15VX-54" value="PK" style="shape=partialRectangle;overflow=hidden;connectable=0;fillColor=none;top=0;left=0;bottom=0;right=0;fontStyle=1;" parent="i5uj6cN08diidUBK15VX-53" vertex="1">
          <mxGeometry width="40" height="40" as="geometry" />
        </mxCell>
        <mxCell id="i5uj6cN08diidUBK15VX-55" value="group_id" style="shape=partialRectangle;overflow=hidden;connectable=0;fillColor=none;top=0;left=0;bottom=0;right=0;align=left;spacingLeft=6;fontStyle=5;" parent="i5uj6cN08diidUBK15VX-53" vertex="1">
          <mxGeometry x="40" width="121" height="40" as="geometry" />
        </mxCell>
        <mxCell id="i5uj6cN08diidUBK15VX-59" style="edgeStyle=orthogonalEdgeStyle;rounded=0;orthogonalLoop=1;jettySize=auto;html=1;exitX=1;exitY=0.5;exitDx=0;exitDy=0;" parent="i5uj6cN08diidUBK15VX-52" source="i5uj6cN08diidUBK15VX-53" target="i5uj6cN08diidUBK15VX-53" edge="1">
          <mxGeometry relative="1" as="geometry" />
        </mxCell>
        <mxCell id="t2gqi0FVWNy471JVDvcs-38" value="" style="edgeStyle=entityRelationEdgeStyle;fontSize=12;html=1;endArrow=ERmany;startArrow=ERmany;strokeColor=#3333FF;strokeWidth=2;entryX=0;entryY=0.5;entryDx=0;entryDy=0;curved=1;" parent="1" target="i5uj6cN08diidUBK15VX-53" edge="1">
          <mxGeometry width="100" height="100" relative="1" as="geometry">
            <mxPoint x="-40" y="780" as="sourcePoint" />
            <mxPoint x="140" y="710" as="targetPoint" />
          </mxGeometry>
        </mxCell>
        <mxCell id="t2gqi0FVWNy471JVDvcs-39" value="&amp;nbsp; &amp;nbsp; &amp;nbsp; &amp;nbsp;lector_name" style="text;html=1;align=center;verticalAlign=middle;resizable=0;points=[];autosize=1;" parent="1" vertex="1">
          <mxGeometry x="-420" y="640" width="100" height="20" as="geometry" />
        </mxCell>
        <mxCell id="t2gqi0FVWNy471JVDvcs-40" value="attendance" style="text;html=1;align=center;verticalAlign=middle;resizable=0;points=[];autosize=1;" parent="1" vertex="1">
          <mxGeometry x="-395" y="660" width="70" height="20" as="geometry" />
        </mxCell>
        <mxCell id="t2gqi0FVWNy471JVDvcs-41" value="&lt;b&gt;FK&lt;/b&gt;" style="text;html=1;align=center;verticalAlign=middle;resizable=0;points=[];autosize=1;" parent="1" vertex="1">
          <mxGeometry x="-440" y="730" width="30" height="20" as="geometry" />
        </mxCell>
        <mxCell id="t2gqi0FVWNy471JVDvcs-42" value="module" style="text;html=1;align=center;verticalAlign=middle;resizable=0;points=[];autosize=1;" parent="1" vertex="1">
          <mxGeometry x="-395" y="680" width="50" height="20" as="geometry" />
        </mxCell>
        <mxCell id="t2gqi0FVWNy471JVDvcs-43" value="Course" style="shape=table;startSize=40;container=1;collapsible=1;childLayout=tableLayout;fixedRows=1;rowLines=0;fontStyle=1;align=center;resizeLast=1;" parent="1" vertex="1">
          <mxGeometry x="-440" y="560" width="160" height="200" as="geometry" />
        </mxCell>
        <mxCell id="t2gqi0FVWNy471JVDvcs-44" value="" style="shape=partialRectangle;collapsible=0;dropTarget=0;pointerEvents=0;fillColor=none;points=[[0,0.5],[1,0.5]];portConstraint=eastwest;top=0;left=0;right=0;bottom=1;" parent="t2gqi0FVWNy471JVDvcs-43" vertex="1">
          <mxGeometry y="40" width="160" height="40" as="geometry" />
        </mxCell>
        <mxCell id="t2gqi0FVWNy471JVDvcs-45" value="PK" style="shape=partialRectangle;overflow=hidden;connectable=0;fillColor=none;top=0;left=0;bottom=0;right=0;fontStyle=1;" parent="t2gqi0FVWNy471JVDvcs-44" vertex="1">
          <mxGeometry width="40" height="40" as="geometry" />
        </mxCell>
        <mxCell id="t2gqi0FVWNy471JVDvcs-46" value="curc_id" style="shape=partialRectangle;overflow=hidden;connectable=0;fillColor=none;top=0;left=0;bottom=0;right=0;align=left;spacingLeft=6;fontStyle=5;" parent="t2gqi0FVWNy471JVDvcs-44" vertex="1">
          <mxGeometry x="40" width="120" height="40" as="geometry" />
        </mxCell>
        <mxCell id="t2gqi0FVWNy471JVDvcs-47" style="edgeStyle=orthogonalEdgeStyle;rounded=0;orthogonalLoop=1;jettySize=auto;html=1;exitX=1;exitY=0.5;exitDx=0;exitDy=0;" parent="t2gqi0FVWNy471JVDvcs-43" edge="1">
          <mxGeometry relative="1" as="geometry">
            <mxPoint x="567" y="-250" as="sourcePoint" />
            <mxPoint x="567" y="-250" as="targetPoint" />
          </mxGeometry>
        </mxCell>
        <mxCell id="t2gqi0FVWNy471JVDvcs-49" value="" style="edgeStyle=elbowEdgeStyle;fontSize=12;html=1;endArrow=ERoneToMany;strokeColor=#3333FF;strokeWidth=2;exitX=1;exitY=0.5;exitDx=0;exitDy=0;" parent="1" source="t2gqi0FVWNy471JVDvcs-44" edge="1">
          <mxGeometry width="100" height="100" relative="1" as="geometry">
            <mxPoint x="-310" y="700" as="sourcePoint" />
            <mxPoint x="-200" y="740" as="targetPoint" />
          </mxGeometry>
        </mxCell>
        <mxCell id="t2gqi0FVWNy471JVDvcs-50" value="&lt;meta charset=&quot;utf-8&quot;&gt;&lt;span style=&quot;color: rgb(0, 0, 0); font-family: helvetica; font-size: 12px; font-style: normal; font-weight: 700; letter-spacing: normal; text-align: left; text-indent: 0px; text-transform: none; word-spacing: 0px; background-color: rgb(248, 249, 250); text-decoration: underline; display: inline; float: none;&quot;&gt;curc_id&lt;/span&gt;" style="text;whiteSpace=wrap;html=1;" parent="1" vertex="1">
          <mxGeometry x="-155.25" y="725" width="110" height="30" as="geometry" />
        </mxCell>
        <mxCell id="t2gqi0FVWNy471JVDvcs-51" value="&lt;b&gt;FK&lt;/b&gt;" style="text;html=1;align=center;verticalAlign=middle;resizable=0;points=[];autosize=1;" parent="1" vertex="1">
          <mxGeometry x="-202.75" y="770" width="30" height="20" as="geometry" />
        </mxCell>
        <mxCell id="t2gqi0FVWNy471JVDvcs-52" value="&lt;meta charset=&quot;utf-8&quot;&gt;&lt;span style=&quot;color: rgb(0, 0, 0); font-family: helvetica; font-size: 12px; font-style: normal; font-weight: 700; letter-spacing: normal; text-align: left; text-indent: 0px; text-transform: none; word-spacing: 0px; background-color: rgb(248, 249, 250); text-decoration: underline; display: inline; float: none;&quot;&gt;group_id&lt;/span&gt;" style="text;whiteSpace=wrap;html=1;" parent="1" vertex="1">
          <mxGeometry x="-157.75" y="765" width="80" height="30" as="geometry" />
        </mxCell>
        <mxCell id="t2gqi0FVWNy471JVDvcs-55" value="RK" style="text;html=1;align=center;verticalAlign=middle;resizable=0;points=[];autosize=1;" parent="1" vertex="1">
          <mxGeometry x="-163.75" y="680" width="30" height="20" as="geometry" />
        </mxCell>
        <mxCell id="t2gqi0FVWNy471JVDvcs-56" value="exam" style="text;html=1;align=center;verticalAlign=middle;resizable=0;points=[];autosize=1;" parent="1" vertex="1">
          <mxGeometry x="-163.75" y="700" width="40" height="20" as="geometry" />
        </mxCell>
        <mxCell id="t2gqi0FVWNy471JVDvcs-57" value="list of students" style="text;html=1;align=center;verticalAlign=middle;resizable=0;points=[];autosize=1;" parent="1" vertex="1">
          <mxGeometry x="398" y="930" width="90" height="20" as="geometry" />
        </mxCell>
        <mxCell id="t2gqi0FVWNy471JVDvcs-59" value="" style="edgeStyle=elbowEdgeStyle;fontSize=12;html=1;endArrow=none;strokeColor=#3333FF;strokeWidth=2;elbow=vertical;endFill=0;" parent="1" edge="1">
          <mxGeometry width="100" height="100" relative="1" as="geometry">
            <mxPoint x="280" y="900" as="sourcePoint" />
            <mxPoint x="339" y="460" as="targetPoint" />
            <Array as="points">
              <mxPoint x="428" y="700" />
            </Array>
          </mxGeometry>
        </mxCell>
        <mxCell id="t2gqi0FVWNy471JVDvcs-61" value="" style="endArrow=none;html=1;rounded=1;strokeColor=#3333FF;strokeWidth=2;edgeStyle=orthogonalEdgeStyle;curved=1;" parent="1" edge="1">
          <mxGeometry relative="1" as="geometry">
            <mxPoint x="340" y="460" as="sourcePoint" />
            <mxPoint x="360" y="460" as="targetPoint" />
          </mxGeometry>
        </mxCell>
        <mxCell id="t2gqi0FVWNy471JVDvcs-62" value="" style="fontSize=12;html=1;endArrow=ERmany;strokeWidth=2;strokeColor=#3333FF;endFill=0;elbow=vertical;" parent="1" edge="1">
          <mxGeometry width="100" height="100" relative="1" as="geometry">
            <mxPoint x="280" y="900" as="sourcePoint" />
            <mxPoint x="240" y="900" as="targetPoint" />
          </mxGeometry>
        </mxCell>
        <mxCell id="TOEwaKtzOkNvhEg05Po8-4" value="&lt;meta charset=&quot;utf-8&quot;&gt;&lt;span style=&quot;color: rgb(0, 0, 0); font-family: helvetica; font-size: 12px; font-style: normal; font-weight: 700; letter-spacing: normal; text-align: left; text-indent: 0px; text-transform: none; word-spacing: 0px; background-color: rgb(248, 249, 250); text-decoration: underline; display: inline; float: none;&quot;&gt;dep_id&lt;/span&gt;" style="text;whiteSpace=wrap;html=1;" parent="1" vertex="1">
          <mxGeometry x="126" y="405" width="60" height="30" as="geometry" />
        </mxCell>
        <mxCell id="TOEwaKtzOkNvhEg05Po8-5" value="dg_type" style="text;html=1;align=center;verticalAlign=middle;resizable=0;points=[];autosize=1;" parent="1" vertex="1">
          <mxGeometry x="-162.75" y="160" width="60" height="20" as="geometry" />
        </mxCell>
        <mxCell id="TOEwaKtzOkNvhEg05Po8-6" value="&lt;b&gt;FK&lt;/b&gt;" style="text;html=1;align=center;verticalAlign=middle;resizable=0;points=[];autosize=1;" parent="1" vertex="1">
          <mxGeometry x="-200" y="210" width="30" height="20" as="geometry" />
        </mxCell>
        <mxCell id="TOEwaKtzOkNvhEg05Po8-14" value="" style="edgeStyle=orthogonalEdgeStyle;fontSize=12;html=1;endArrow=ERmany;startArrow=ERmany;strokeColor=#3333FF;strokeWidth=2;" parent="1" edge="1">
          <mxGeometry width="100" height="100" relative="1" as="geometry">
            <mxPoint x="-37" y="140" as="sourcePoint" />
            <mxPoint x="80" y="390" as="targetPoint" />
            <Array as="points">
              <mxPoint y="140" />
              <mxPoint y="390" />
            </Array>
          </mxGeometry>
        </mxCell>
        <mxCell id="TOEwaKtzOkNvhEg05Po8-15" value="&lt;b&gt;FK&lt;/b&gt;" style="text;html=1;align=center;verticalAlign=middle;resizable=0;points=[];autosize=1;" parent="1" vertex="1">
          <mxGeometry x="80.5" y="380" width="30" height="20" as="geometry" />
        </mxCell>
        <mxCell id="TOEwaKtzOkNvhEg05Po8-16" value="&lt;span style=&quot;color: rgb(0 , 0 , 0) ; font-family: &amp;#34;helvetica&amp;#34; ; font-size: 12px ; font-style: normal ; font-weight: 700 ; letter-spacing: normal ; text-align: left ; text-indent: 0px ; text-transform: none ; word-spacing: 0px ; background-color: rgb(248 , 249 , 250) ; text-decoration: underline ; display: inline ; float: none&quot;&gt;dg_id&lt;/span&gt;" style="text;whiteSpace=wrap;html=1;" parent="1" vertex="1">
          <mxGeometry x="126" y="375" width="60" height="30" as="geometry" />
        </mxCell>
        <mxCell id="TOEwaKtzOkNvhEg05Po8-17" value="" style="endArrow=none;html=1;rounded=0;strokeColor=#3333FF;strokeWidth=2;" parent="1" edge="1">
          <mxGeometry relative="1" as="geometry">
            <mxPoint x="78" y="421" as="sourcePoint" />
            <mxPoint x="78" y="421" as="targetPoint" />
          </mxGeometry>
        </mxCell>
        <mxCell id="aHFjnshdTtjgc60R7SNO-1" value="&lt;meta charset=&quot;utf-8&quot;&gt;&lt;span style=&quot;color: rgb(0, 0, 0); font-family: helvetica; font-size: 12px; font-style: normal; font-weight: 700; letter-spacing: normal; text-align: left; text-indent: 0px; text-transform: none; word-spacing: 0px; background-color: rgb(248, 249, 250); text-decoration: underline; display: inline; float: none;&quot;&gt;teach_id&lt;/span&gt;" style="text;whiteSpace=wrap;html=1;" parent="1" vertex="1">
          <mxGeometry x="-157.75" y="205" width="70" height="30" as="geometry" />
        </mxCell>
        <mxCell id="aHFjnshdTtjgc60R7SNO-12" value="gpa_score" style="text;html=1;align=center;verticalAlign=middle;resizable=0;points=[];autosize=1;" parent="1" vertex="1">
          <mxGeometry x="675" y="800" width="70" height="20" as="geometry" />
        </mxCell>
        <mxCell id="aHFjnshdTtjgc60R7SNO-13" value="&lt;b&gt;FK&lt;/b&gt;" style="text;html=1;align=center;verticalAlign=middle;resizable=0;points=[];autosize=1;" parent="1" vertex="1">
          <mxGeometry x="641" y="850" width="30" height="20" as="geometry" />
        </mxCell>
        <mxCell id="aHFjnshdTtjgc60R7SNO-15" value="GPA" style="shape=table;startSize=40;container=1;collapsible=1;childLayout=tableLayout;fixedRows=1;rowLines=0;fontStyle=1;align=center;resizeLast=1;" parent="1" vertex="1">
          <mxGeometry x="640" y="720" width="160" height="160" as="geometry" />
        </mxCell>
        <mxCell id="aHFjnshdTtjgc60R7SNO-16" value="" style="shape=partialRectangle;collapsible=0;dropTarget=0;pointerEvents=0;fillColor=none;points=[[0,0.5],[1,0.5]];portConstraint=eastwest;top=0;left=0;right=0;bottom=1;" parent="aHFjnshdTtjgc60R7SNO-15" vertex="1">
          <mxGeometry y="40" width="160" height="40" as="geometry" />
        </mxCell>
        <mxCell id="aHFjnshdTtjgc60R7SNO-17" value="PK" style="shape=partialRectangle;overflow=hidden;connectable=0;fillColor=none;top=0;left=0;bottom=0;right=0;fontStyle=1;" parent="aHFjnshdTtjgc60R7SNO-16" vertex="1">
          <mxGeometry width="40" height="40" as="geometry" />
        </mxCell>
        <mxCell id="aHFjnshdTtjgc60R7SNO-18" value="gpa_id" style="shape=partialRectangle;overflow=hidden;connectable=0;fillColor=none;top=0;left=0;bottom=0;right=0;align=left;spacingLeft=6;fontStyle=5;" parent="aHFjnshdTtjgc60R7SNO-16" vertex="1">
          <mxGeometry x="40" width="120" height="40" as="geometry" />
        </mxCell>
        <mxCell id="aHFjnshdTtjgc60R7SNO-19" style="edgeStyle=orthogonalEdgeStyle;rounded=0;orthogonalLoop=1;jettySize=auto;html=1;exitX=1;exitY=0.5;exitDx=0;exitDy=0;" parent="aHFjnshdTtjgc60R7SNO-15" source="aHFjnshdTtjgc60R7SNO-16" target="aHFjnshdTtjgc60R7SNO-16" edge="1">
          <mxGeometry relative="1" as="geometry" />
        </mxCell>
        <mxCell id="aHFjnshdTtjgc60R7SNO-21" value="&lt;meta charset=&quot;utf-8&quot;&gt;&lt;span style=&quot;color: rgb(0, 0, 0); font-family: helvetica; font-size: 12px; font-style: normal; font-weight: 700; letter-spacing: normal; text-align: left; text-indent: 0px; text-transform: none; word-spacing: 0px; background-color: rgb(248, 249, 250); text-decoration: underline; display: inline; float: none;&quot;&gt;stud_id&lt;/span&gt;" style="text;whiteSpace=wrap;html=1;" parent="1" vertex="1">
          <mxGeometry x="690" y="845" width="70" height="30" as="geometry" />
        </mxCell>
        <mxCell id="aHFjnshdTtjgc60R7SNO-22" value="" style="edgeStyle=orthogonalEdgeStyle;fontSize=12;html=1;endArrow=ERmandOne;startArrow=ERmandOne;strokeColor=#3333FF;strokeWidth=2;entryX=1.001;entryY=0.764;entryDx=0;entryDy=0;entryPerimeter=0;curved=1;" parent="1" edge="1" target="C-vyLk0tnHw3VtMMgP7b-24">
          <mxGeometry width="100" height="100" relative="1" as="geometry">
            <mxPoint x="640" y="860" as="sourcePoint" />
            <mxPoint x="520" y="1100" as="targetPoint" />
          </mxGeometry>
        </mxCell>
        <mxCell id="aHFjnshdTtjgc60R7SNO-38" value="total = 100%" style="text;html=1;align=center;verticalAlign=middle;resizable=0;points=[];autosize=1;" parent="1" vertex="1">
          <mxGeometry x="681" y="555" width="80" height="20" as="geometry" />
        </mxCell>
        <mxCell id="aHFjnshdTtjgc60R7SNO-40" value="&lt;b&gt;FK&lt;/b&gt;" style="text;html=1;align=center;verticalAlign=middle;resizable=0;points=[];autosize=1;" parent="1" vertex="1">
          <mxGeometry x="645" y="600" width="30" height="20" as="geometry" />
        </mxCell>
        <mxCell id="aHFjnshdTtjgc60R7SNO-42" value=" Attendance" style="shape=table;startSize=40;container=1;collapsible=1;childLayout=tableLayout;fixedRows=1;rowLines=0;fontStyle=1;align=center;resizeLast=1;" parent="1" vertex="1">
          <mxGeometry x="641" y="475" width="160" height="200" as="geometry" />
        </mxCell>
        <mxCell id="aHFjnshdTtjgc60R7SNO-43" value="" style="shape=partialRectangle;collapsible=0;dropTarget=0;pointerEvents=0;fillColor=none;points=[[0,0.5],[1,0.5]];portConstraint=eastwest;top=0;left=0;right=0;bottom=1;" parent="aHFjnshdTtjgc60R7SNO-42" vertex="1">
          <mxGeometry y="40" width="160" height="40" as="geometry" />
        </mxCell>
        <mxCell id="aHFjnshdTtjgc60R7SNO-44" value="PK" style="shape=partialRectangle;overflow=hidden;connectable=0;fillColor=none;top=0;left=0;bottom=0;right=0;fontStyle=1;" parent="aHFjnshdTtjgc60R7SNO-43" vertex="1">
          <mxGeometry width="40" height="40" as="geometry" />
        </mxCell>
        <mxCell id="aHFjnshdTtjgc60R7SNO-45" value="attndc_id" style="shape=partialRectangle;overflow=hidden;connectable=0;fillColor=none;top=0;left=0;bottom=0;right=0;align=left;spacingLeft=6;fontStyle=5;" parent="aHFjnshdTtjgc60R7SNO-43" vertex="1">
          <mxGeometry x="40" width="120" height="40" as="geometry" />
        </mxCell>
        <mxCell id="aHFjnshdTtjgc60R7SNO-46" style="edgeStyle=orthogonalEdgeStyle;rounded=0;orthogonalLoop=1;jettySize=auto;html=1;exitX=1;exitY=0.5;exitDx=0;exitDy=0;" parent="aHFjnshdTtjgc60R7SNO-42" edge="1">
          <mxGeometry relative="1" as="geometry">
            <mxPoint x="567" y="-250" as="sourcePoint" />
            <mxPoint x="567" y="-250" as="targetPoint" />
          </mxGeometry>
        </mxCell>
        <mxCell id="aHFjnshdTtjgc60R7SNO-47" value="" style="edgeStyle=elbowEdgeStyle;fontSize=12;html=1;endArrow=ERmandOne;startArrow=ERmandOne;strokeColor=#3333FF;strokeWidth=2;rounded=1;exitX=1;exitY=0.5;exitDx=0;exitDy=0;" parent="1" target="aHFjnshdTtjgc60R7SNO-40" edge="1" source="C-vyLk0tnHw3VtMMgP7b-24">
          <mxGeometry width="100" height="100" relative="1" as="geometry">
            <mxPoint x="520" y="1060" as="sourcePoint" />
            <mxPoint x="641" y="660" as="targetPoint" />
            <Array as="points">
              <mxPoint x="581" y="780" />
            </Array>
          </mxGeometry>
        </mxCell>
        <mxCell id="aHFjnshdTtjgc60R7SNO-48" value="&lt;meta charset=&quot;utf-8&quot;&gt;&lt;span style=&quot;color: rgb(0, 0, 0); font-family: helvetica; font-size: 12px; font-style: normal; font-weight: 700; letter-spacing: normal; text-align: left; text-indent: 0px; text-transform: none; word-spacing: 0px; background-color: rgb(248, 249, 250); text-decoration: underline; display: inline; float: none;&quot;&gt;stud_id&lt;/span&gt;" style="text;whiteSpace=wrap;html=1;" parent="1" vertex="1">
          <mxGeometry x="691" y="600" width="70" height="30" as="geometry" />
        </mxCell>
        <mxCell id="aHFjnshdTtjgc60R7SNO-59" style="edgeStyle=orthogonalEdgeStyle;rounded=0;orthogonalLoop=1;jettySize=auto;html=1;exitX=1;exitY=0.5;exitDx=0;exitDy=0;" parent="1" edge="1">
          <mxGeometry relative="1" as="geometry">
            <mxPoint x="-394" y="185" as="sourcePoint" />
            <mxPoint x="-394" y="185" as="targetPoint" />
          </mxGeometry>
        </mxCell>
        <mxCell id="aHFjnshdTtjgc60R7SNO-60" value="AdvTeach" style="shape=table;startSize=30;container=1;collapsible=1;childLayout=tableLayout;fixedRows=1;rowLines=0;fontStyle=1;align=center;resizeLast=1;" parent="1" vertex="1">
          <mxGeometry x="-420" y="185" width="180" height="160" as="geometry" />
        </mxCell>
        <mxCell id="aHFjnshdTtjgc60R7SNO-61" value="" style="shape=partialRectangle;collapsible=0;dropTarget=0;pointerEvents=0;fillColor=none;top=0;left=0;bottom=0;right=0;points=[[0,0.5],[1,0.5]];portConstraint=eastwest;" parent="aHFjnshdTtjgc60R7SNO-60" vertex="1">
          <mxGeometry y="30" width="180" height="30" as="geometry" />
        </mxCell>
        <mxCell id="aHFjnshdTtjgc60R7SNO-62" value="PK,FK1" style="shape=partialRectangle;connectable=0;fillColor=none;top=0;left=0;bottom=0;right=0;fontStyle=1;overflow=hidden;" parent="aHFjnshdTtjgc60R7SNO-61" vertex="1">
          <mxGeometry width="60" height="30" as="geometry" />
        </mxCell>
        <mxCell id="aHFjnshdTtjgc60R7SNO-63" value="teach__id" style="shape=partialRectangle;connectable=0;fillColor=none;top=0;left=0;bottom=0;right=0;align=left;spacingLeft=6;fontStyle=5;overflow=hidden;" parent="aHFjnshdTtjgc60R7SNO-61" vertex="1">
          <mxGeometry x="60" width="120" height="30" as="geometry" />
        </mxCell>
        <mxCell id="aHFjnshdTtjgc60R7SNO-64" value="" style="shape=partialRectangle;collapsible=0;dropTarget=0;pointerEvents=0;fillColor=none;top=0;left=0;bottom=1;right=0;points=[[0,0.5],[1,0.5]];portConstraint=eastwest;" parent="aHFjnshdTtjgc60R7SNO-60" vertex="1">
          <mxGeometry y="60" width="180" height="30" as="geometry" />
        </mxCell>
        <mxCell id="aHFjnshdTtjgc60R7SNO-65" value="PK,FK2" style="shape=partialRectangle;connectable=0;fillColor=none;top=0;left=0;bottom=0;right=0;fontStyle=1;overflow=hidden;" parent="aHFjnshdTtjgc60R7SNO-64" vertex="1">
          <mxGeometry width="60" height="30" as="geometry" />
        </mxCell>
        <mxCell id="aHFjnshdTtjgc60R7SNO-66" value="adv_id" style="shape=partialRectangle;connectable=0;fillColor=none;top=0;left=0;bottom=0;right=0;align=left;spacingLeft=6;fontStyle=5;overflow=hidden;" parent="aHFjnshdTtjgc60R7SNO-64" vertex="1">
          <mxGeometry x="60" width="120" height="30" as="geometry" />
        </mxCell>
        <mxCell id="aHFjnshdTtjgc60R7SNO-67" value="" style="shape=partialRectangle;collapsible=0;dropTarget=0;pointerEvents=0;fillColor=none;top=0;left=0;bottom=0;right=0;points=[[0,0.5],[1,0.5]];portConstraint=eastwest;" parent="aHFjnshdTtjgc60R7SNO-60" vertex="1">
          <mxGeometry y="90" width="180" height="30" as="geometry" />
        </mxCell>
        <mxCell id="aHFjnshdTtjgc60R7SNO-68" value="" style="shape=partialRectangle;connectable=0;fillColor=none;top=0;left=0;bottom=0;right=0;editable=1;overflow=hidden;" parent="aHFjnshdTtjgc60R7SNO-67" vertex="1">
          <mxGeometry width="60" height="30" as="geometry" />
        </mxCell>
        <mxCell id="aHFjnshdTtjgc60R7SNO-69" value="" style="shape=partialRectangle;connectable=0;fillColor=none;top=0;left=0;bottom=0;right=0;align=left;spacingLeft=6;overflow=hidden;" parent="aHFjnshdTtjgc60R7SNO-67" vertex="1">
          <mxGeometry x="60" width="120" height="30" as="geometry" />
        </mxCell>
        <mxCell id="aHFjnshdTtjgc60R7SNO-70" value="" style="shape=partialRectangle;collapsible=0;dropTarget=0;pointerEvents=0;fillColor=none;top=0;left=0;bottom=0;right=0;points=[[0,0.5],[1,0.5]];portConstraint=eastwest;" parent="aHFjnshdTtjgc60R7SNO-60" vertex="1">
          <mxGeometry y="120" width="180" height="30" as="geometry" />
        </mxCell>
        <mxCell id="aHFjnshdTtjgc60R7SNO-71" value="" style="shape=partialRectangle;connectable=0;fillColor=none;top=0;left=0;bottom=0;right=0;editable=1;overflow=hidden;" parent="aHFjnshdTtjgc60R7SNO-70" vertex="1">
          <mxGeometry width="60" height="30" as="geometry" />
        </mxCell>
        <mxCell id="aHFjnshdTtjgc60R7SNO-72" value="" style="shape=partialRectangle;connectable=0;fillColor=none;top=0;left=0;bottom=0;right=0;align=left;spacingLeft=6;overflow=hidden;" parent="aHFjnshdTtjgc60R7SNO-70" vertex="1">
          <mxGeometry x="60" width="120" height="30" as="geometry" />
        </mxCell>
        <mxCell id="TOEwaKtzOkNvhEg05Po8-8" value="Degree" style="shape=table;startSize=40;container=1;collapsible=1;childLayout=tableLayout;fixedRows=1;rowLines=0;fontStyle=1;align=center;resizeLast=1;" parent="1" vertex="1">
          <mxGeometry x="-201" y="80" width="160" height="160" as="geometry" />
        </mxCell>
        <mxCell id="TOEwaKtzOkNvhEg05Po8-9" value="" style="shape=partialRectangle;collapsible=0;dropTarget=0;pointerEvents=0;fillColor=none;points=[[0,0.5],[1,0.5]];portConstraint=eastwest;top=0;left=0;right=0;bottom=1;" parent="TOEwaKtzOkNvhEg05Po8-8" vertex="1">
          <mxGeometry y="40" width="160" height="40" as="geometry" />
        </mxCell>
        <mxCell id="TOEwaKtzOkNvhEg05Po8-10" value="PK" style="shape=partialRectangle;overflow=hidden;connectable=0;fillColor=none;top=0;left=0;bottom=0;right=0;fontStyle=1;" parent="TOEwaKtzOkNvhEg05Po8-9" vertex="1">
          <mxGeometry width="40" height="40" as="geometry" />
        </mxCell>
        <mxCell id="TOEwaKtzOkNvhEg05Po8-11" value="dg_id" style="shape=partialRectangle;overflow=hidden;connectable=0;fillColor=none;top=0;left=0;bottom=0;right=0;align=left;spacingLeft=6;fontStyle=5;" parent="TOEwaKtzOkNvhEg05Po8-9" vertex="1">
          <mxGeometry x="40" width="120" height="40" as="geometry" />
        </mxCell>
        <mxCell id="TOEwaKtzOkNvhEg05Po8-12" style="edgeStyle=orthogonalEdgeStyle;rounded=0;orthogonalLoop=1;jettySize=auto;html=1;exitX=1;exitY=0.5;exitDx=0;exitDy=0;" parent="TOEwaKtzOkNvhEg05Po8-8" source="TOEwaKtzOkNvhEg05Po8-9" target="TOEwaKtzOkNvhEg05Po8-9" edge="1">
          <mxGeometry relative="1" as="geometry" />
        </mxCell>
        <mxCell id="i5uj6cN08diidUBK15VX-103" value="Speciality" style="shape=table;startSize=40;container=1;collapsible=1;childLayout=tableLayout;fixedRows=1;rowLines=0;fontStyle=1;align=center;resizeLast=1;" parent="1" vertex="1">
          <mxGeometry x="-201.75" y="280" width="160" height="160" as="geometry" />
        </mxCell>
        <mxCell id="i5uj6cN08diidUBK15VX-104" value="" style="shape=partialRectangle;collapsible=0;dropTarget=0;pointerEvents=0;fillColor=none;points=[[0,0.5],[1,0.5]];portConstraint=eastwest;top=0;left=0;right=0;bottom=1;" parent="i5uj6cN08diidUBK15VX-103" vertex="1">
          <mxGeometry y="40" width="160" height="40" as="geometry" />
        </mxCell>
        <mxCell id="i5uj6cN08diidUBK15VX-105" value="PK" style="shape=partialRectangle;overflow=hidden;connectable=0;fillColor=none;top=0;left=0;bottom=0;right=0;fontStyle=1;" parent="i5uj6cN08diidUBK15VX-104" vertex="1">
          <mxGeometry width="40" height="40" as="geometry" />
        </mxCell>
        <mxCell id="i5uj6cN08diidUBK15VX-106" value="sp_id" style="shape=partialRectangle;overflow=hidden;connectable=0;fillColor=none;top=0;left=0;bottom=0;right=0;align=left;spacingLeft=6;fontStyle=5;" parent="i5uj6cN08diidUBK15VX-104" vertex="1">
          <mxGeometry x="40" width="120" height="40" as="geometry" />
        </mxCell>
        <mxCell id="i5uj6cN08diidUBK15VX-107" style="edgeStyle=orthogonalEdgeStyle;rounded=0;orthogonalLoop=1;jettySize=auto;html=1;exitX=1;exitY=0.5;exitDx=0;exitDy=0;" parent="i5uj6cN08diidUBK15VX-103" source="i5uj6cN08diidUBK15VX-104" target="i5uj6cN08diidUBK15VX-104" edge="1">
          <mxGeometry relative="1" as="geometry" />
        </mxCell>
        <mxCell id="i5uj6cN08diidUBK15VX-111" value="module" style="shape=table;startSize=40;container=1;collapsible=1;childLayout=tableLayout;fixedRows=1;rowLines=0;fontStyle=1;align=center;resizeLast=1;" parent="1" vertex="1">
          <mxGeometry x="-202.75" y="560" width="160" height="240" as="geometry" />
        </mxCell>
        <mxCell id="i5uj6cN08diidUBK15VX-112" value="" style="shape=partialRectangle;collapsible=0;dropTarget=0;pointerEvents=0;fillColor=none;points=[[0,0.5],[1,0.5]];portConstraint=eastwest;top=0;left=0;right=0;bottom=1;" parent="i5uj6cN08diidUBK15VX-111" vertex="1">
          <mxGeometry y="40" width="160" height="40" as="geometry" />
        </mxCell>
        <mxCell id="i5uj6cN08diidUBK15VX-113" value="PK" style="shape=partialRectangle;overflow=hidden;connectable=0;fillColor=none;top=0;left=0;bottom=0;right=0;fontStyle=1;" parent="i5uj6cN08diidUBK15VX-112" vertex="1">
          <mxGeometry width="40" height="40" as="geometry" />
        </mxCell>
        <mxCell id="i5uj6cN08diidUBK15VX-114" value="mod_id" style="shape=partialRectangle;overflow=hidden;connectable=0;fillColor=none;top=0;left=0;bottom=0;right=0;align=left;spacingLeft=6;fontStyle=5;" parent="i5uj6cN08diidUBK15VX-112" vertex="1">
          <mxGeometry x="40" width="120" height="40" as="geometry" />
        </mxCell>
        <mxCell id="i5uj6cN08diidUBK15VX-115" style="edgeStyle=orthogonalEdgeStyle;rounded=0;orthogonalLoop=1;jettySize=auto;html=1;exitX=1;exitY=0.5;exitDx=0;exitDy=0;" parent="i5uj6cN08diidUBK15VX-111" edge="1">
          <mxGeometry relative="1" as="geometry">
            <mxPoint x="567" y="-250" as="sourcePoint" />
            <mxPoint x="567" y="-250" as="targetPoint" />
          </mxGeometry>
        </mxCell>
        <mxCell id="aHFjnshdTtjgc60R7SNO-73" value="&lt;b&gt;FK&lt;/b&gt;" style="text;html=1;align=center;verticalAlign=middle;resizable=0;points=[];autosize=1;" parent="1" vertex="1">
          <mxGeometry x="-410" y="280" width="30" height="20" as="geometry" />
        </mxCell>
        <mxCell id="aHFjnshdTtjgc60R7SNO-74" value="" style="edgeStyle=elbowEdgeStyle;fontSize=12;html=1;endArrow=ERmany;startArrow=ERmany;strokeColor=#3333FF;strokeWidth=2;exitX=0;exitY=0.5;exitDx=0;exitDy=0;entryX=0;entryY=0.5;entryDx=0;entryDy=0;" parent="1" source="t2gqi0FVWNy471JVDvcs-44" target="aHFjnshdTtjgc60R7SNO-67" edge="1">
          <mxGeometry width="100" height="100" relative="1" as="geometry">
            <mxPoint x="-400" y="530" as="sourcePoint" />
            <mxPoint x="-450" y="320" as="targetPoint" />
            <Array as="points">
              <mxPoint x="-480" y="270" />
              <mxPoint x="-480" y="420" />
            </Array>
          </mxGeometry>
        </mxCell>
        <mxCell id="aHFjnshdTtjgc60R7SNO-75" value="" style="edgeStyle=elbowEdgeStyle;fontSize=12;html=1;endArrow=none;strokeColor=#3333FF;strokeWidth=2;elbow=vertical;endFill=0;" parent="1" edge="1">
          <mxGeometry width="100" height="100" relative="1" as="geometry">
            <mxPoint x="70" y="220" as="sourcePoint" />
            <mxPoint x="-230" y="230" as="targetPoint" />
            <Array as="points">
              <mxPoint x="-90" y="260" />
            </Array>
          </mxGeometry>
        </mxCell>
        <mxCell id="aHFjnshdTtjgc60R7SNO-77" value="" style="endArrow=none;html=1;rounded=0;strokeColor=#3333FF;strokeWidth=2;entryX=0;entryY=0.5;entryDx=0;entryDy=0;" parent="1" target="i5uj6cN08diidUBK15VX-192" edge="1">
          <mxGeometry relative="1" as="geometry">
            <mxPoint x="70" y="220" as="sourcePoint" />
            <mxPoint x="-60" y="370" as="targetPoint" />
          </mxGeometry>
        </mxCell>
        <mxCell id="aHFjnshdTtjgc60R7SNO-78" value="&lt;meta charset=&quot;utf-8&quot;&gt;&lt;span style=&quot;color: rgb(0, 0, 0); font-family: helvetica; font-size: 12px; font-style: normal; font-weight: 700; letter-spacing: normal; text-align: left; text-indent: 0px; text-transform: none; word-spacing: 0px; background-color: rgb(248, 249, 250); text-decoration: underline; display: inline; float: none;&quot;&gt;curc_id&lt;/span&gt;" style="text;whiteSpace=wrap;html=1;" parent="1" vertex="1">
          <mxGeometry x="-360" y="275" width="70" height="30" as="geometry" />
        </mxCell>
        <mxCell id="QzoMsPE74ClBPxrs6TAk-2" value="" style="endArrow=none;html=1;rounded=0;strokeColor=#3333FF;strokeWidth=2;startArrow=ERmany;startFill=0;exitX=1;exitY=0.5;exitDx=0;exitDy=0;" edge="1" parent="1" source="aHFjnshdTtjgc60R7SNO-61">
          <mxGeometry relative="1" as="geometry">
            <mxPoint x="-200" y="420" as="sourcePoint" />
            <mxPoint x="-230" y="230" as="targetPoint" />
          </mxGeometry>
        </mxCell>
        <mxCell id="QzoMsPE74ClBPxrs6TAk-4" value="" style="endArrow=none;html=1;rounded=0;strokeColor=#3333FF;strokeWidth=2;startArrow=ERmany;startFill=0;exitX=0;exitY=0.5;exitDx=0;exitDy=0;" edge="1" parent="1" source="aHFjnshdTtjgc60R7SNO-64">
          <mxGeometry relative="1" as="geometry">
            <mxPoint x="-370" y="470" as="sourcePoint" />
            <mxPoint x="-440" y="260" as="targetPoint" />
          </mxGeometry>
        </mxCell>
        <mxCell id="QzoMsPE74ClBPxrs6TAk-5" value="" style="edgeStyle=elbowEdgeStyle;fontSize=12;html=1;endArrow=none;endFill=0;strokeColor=#3333FF;strokeWidth=2;entryX=0;entryY=0.5;entryDx=0;entryDy=0;" edge="1" parent="1" target="i5uj6cN08diidUBK15VX-29">
          <mxGeometry width="100" height="100" relative="1" as="geometry">
            <mxPoint x="-440" y="520" as="sourcePoint" />
            <mxPoint x="200" y="470" as="targetPoint" />
            <Array as="points">
              <mxPoint x="280" y="350" />
            </Array>
          </mxGeometry>
        </mxCell>
        <mxCell id="QzoMsPE74ClBPxrs6TAk-6" value="" style="endArrow=none;html=1;rounded=0;strokeColor=#3333FF;strokeWidth=2;" edge="1" parent="1">
          <mxGeometry relative="1" as="geometry">
            <mxPoint x="-440" y="520" as="sourcePoint" />
            <mxPoint x="-440" y="260" as="targetPoint" />
          </mxGeometry>
        </mxCell>
        <mxCell id="QzoMsPE74ClBPxrs6TAk-10" value="" style="endArrow=none;html=1;rounded=0;strokeColor=#3333FF;strokeWidth=2;exitX=1.003;exitY=0.186;exitDx=0;exitDy=0;exitPerimeter=0;startArrow=ERmany;startFill=0;" edge="1" parent="1" source="i5uj6cN08diidUBK15VX-192">
          <mxGeometry relative="1" as="geometry">
            <mxPoint x="180" y="350" as="sourcePoint" />
            <mxPoint x="280" y="207" as="targetPoint" />
          </mxGeometry>
        </mxCell>
        <mxCell id="QzoMsPE74ClBPxrs6TAk-11" value="" style="endArrow=none;html=1;rounded=0;strokeColor=#3333FF;strokeWidth=2;" edge="1" parent="1">
          <mxGeometry relative="1" as="geometry">
            <mxPoint x="280" y="210" as="sourcePoint" />
            <mxPoint x="280" y="120" as="targetPoint" />
          </mxGeometry>
        </mxCell>
        <mxCell id="QzoMsPE74ClBPxrs6TAk-16" value="&lt;meta charset=&quot;utf-8&quot;&gt;&lt;span style=&quot;color: rgb(0, 0, 0); font-family: helvetica; font-size: 12px; font-style: normal; font-weight: 700; letter-spacing: normal; text-align: left; text-indent: 0px; text-transform: none; word-spacing: 0px; background-color: rgb(248, 249, 250); text-decoration: underline; display: inline; float: none;&quot;&gt;lec_id&lt;/span&gt;" style="text;whiteSpace=wrap;html=1;" vertex="1" parent="1">
          <mxGeometry x="136" y="890" width="60" height="30" as="geometry" />
        </mxCell>
        <mxCell id="QzoMsPE74ClBPxrs6TAk-17" value="&lt;b&gt;FK&lt;/b&gt;" style="text;html=1;align=center;verticalAlign=middle;resizable=0;points=[];autosize=1;" vertex="1" parent="1">
          <mxGeometry x="80.5" y="890" width="30" height="20" as="geometry" />
        </mxCell>
      </root>
    </mxGraphModel>
  </diagram>
</mxfile>
